<svg width="23" height="23" viewBox="0 0 23 23" fill="none" xmlns="http://www.w3.org/2000/svg">
<g clip-path="url(#clip0_15_1105)">
<path d="M1.75317 16.7483V20.3145C1.75317 20.5314 1.92945 20.7122 2.15092 20.7122H4.90803C5.12498 20.7122 5.30577 20.5359 5.30577 20.3145V14.0409L3.30348 16.0432C2.87862 16.4636 2.33623 16.7076 1.75317 16.7483Z" fill="#A9AAB2"/>
<path d="M6.67993 13.9957V20.3145C6.67993 20.5314 6.85621 20.7122 7.07768 20.7122H9.83479C10.0517 20.7122 10.2325 20.5359 10.2325 20.3145V16.5946C9.60427 16.5811 9.01669 16.3325 8.57375 15.8895L6.67993 13.9957Z" fill="#A9AAB2"/>
<path d="M11.6064 16.2014V20.3145C11.6064 20.5314 11.7827 20.7122 12.0042 20.7122H14.7613C14.9783 20.7122 15.159 20.5359 15.159 20.3145V12.7256L11.9997 15.885C11.8776 16.0071 11.7466 16.111 11.6064 16.2014Z" fill="#A9AAB2"/>
<path d="M19.8191 8.06116L16.5332 11.3471V20.3145C16.5332 20.5314 16.7095 20.7122 16.9309 20.7122H19.6881C19.905 20.7122 20.0858 20.5359 20.0858 20.3145V8.30975C19.9954 8.23291 19.9276 8.16511 19.8779 8.11991L19.8191 8.06116Z" fill="#F1673A"/>
<path d="M22.0745 2.23959C21.9434 2.09948 21.7446 2.02716 21.4914 2.02716C21.4688 2.02716 21.4417 2.02716 21.4191 2.02716C20.1355 2.08592 18.8564 2.1492 17.5727 2.20795C17.401 2.21699 17.166 2.22603 16.9806 2.41135C16.9219 2.47011 16.8767 2.5379 16.8405 2.61926C16.6507 3.03057 16.9174 3.29724 17.0439 3.42379L17.3648 3.74922C17.5863 3.97522 17.8123 4.20121 18.0383 4.42268L10.2822 12.1833L6.79742 8.69846C6.58951 8.49054 6.30928 8.37303 6.01097 8.37303C5.71266 8.37303 5.43695 8.49054 5.22903 8.69846L0.587148 13.3358C0.153242 13.7697 0.153242 14.4703 0.587148 14.9042L0.795061 15.1121C1.00297 15.32 1.2832 15.4376 1.58151 15.4376C1.87982 15.4376 2.15554 15.32 2.36345 15.1121L6.01097 11.4646L9.49577 14.9494C9.70368 15.1573 9.98391 15.2748 10.2822 15.2748C10.5805 15.2748 10.8562 15.1573 11.0687 14.9494L19.8191 6.19898L20.809 7.18431C20.9265 7.30182 21.0892 7.46454 21.3378 7.46454C21.4417 7.46454 21.5457 7.43742 21.6542 7.37866C21.7265 7.33798 21.7898 7.29278 21.844 7.23855C22.0383 7.04419 22.0745 6.7956 22.0835 6.60125C22.1197 5.7696 22.1604 4.93794 22.2011 4.10177L22.2598 2.84977C22.2734 2.58762 22.2146 2.38423 22.0745 2.23959Z" fill="#F1673A"/>
</g>
<defs>
<clipPath id="clip0_15_1105">
<rect width="22" height="22" fill="white" transform="translate(0.261719 0.36969)"/>
</clipPath>
</defs>
</svg>
