<svg width="23" height="21" viewBox="0 0 23 21" fill="none" xmlns="http://www.w3.org/2000/svg">
<path fill-rule="evenodd" clip-rule="evenodd" d="M7.13672 17.3373V20.0873H15.3867V20.0873H15.1964V16.0387H1.56033V2.13589H20.9631V11.2935H22.2617V2.90093C22.2617 2.33336 22.0598 1.84752 21.6559 1.44343C21.252 1.03933 20.7664 0.83728 20.1992 0.83728H2.32422C1.75703 0.83728 1.27148 1.0378 0.867578 1.43884C0.463672 1.83988 0.261719 2.32419 0.261719 2.89176V15.2736C0.261719 15.8412 0.463672 16.327 0.867578 16.7311C1.27148 17.1352 1.75703 17.3373 2.32422 17.3373H7.13672Z" fill="#A9AAB2"/>
<mask id="mask0_15_1049" style="mask-type:alpha" maskUnits="userSpaceOnUse" x="9" y="4" width="13" height="13">
<rect x="9.28955" y="4.48563" width="11.9382" height="11.9382" fill="#D9D9D9"/>
</mask>
<g mask="url(#mask0_15_1049)">
<path d="M9.45215 11.1418V9.99593H11.3619V11.1418H9.45215ZM11.7916 14.5793L10.9799 13.7676L12.3326 12.4308L13.1443 13.2265L11.7916 14.5793ZM12.3326 8.34084L10.9799 6.98812L11.7916 6.17649L13.1284 7.52921L12.3326 8.34084ZM19.8283 16.107L16.7887 13.0674L15.9452 15.3432L14.0355 9.23204L20.1466 11.1418L17.8708 11.9852L20.9105 15.0249L19.8283 16.107ZM14.7994 7.32232V5.4126H15.9452V7.32232H14.7994ZM18.03 8.32492L17.2184 7.52921L18.5711 6.17649L19.3827 6.98812L18.03 8.32492Z" fill="#F1673A"/>
</g>
</svg>
