<?xml version="1.0" encoding="UTF-8"?>
<svg id="Layer_2" data-name="Layer 2" xmlns="http://www.w3.org/2000/svg" xmlns:xlink="http://www.w3.org/1999/xlink" viewBox="0 0 1030.42 1080">
  <defs>
    <style>
      .cls-1 {
        fill: #fff;
      }

      .cls-2 {
        fill: url(#linear-gradient);
      }
    </style>
    <linearGradient id="linear-gradient" x1="186.04" y1="353.26" x2="811.06" y2="900.67" gradientUnits="userSpaceOnUse">
      <stop offset=".19" stop-color="#fdcc0f"/>
      <stop offset="1" stop-color="#febc11"/>
    </linearGradient>
  </defs>
  <g id="Layer_1-2" data-name="Layer 1">
    <path class="cls-2" d="M515.21,0C230.67,0,0,230.67,0,515.21c0,118.74,40.18,228.1,107.67,315.23l-40.01,206.61c-5.42,27.98,22.25,50.89,48.73,40.33l208.69-83.18c58.83,23.37,122.97,36.22,190.12,36.22,284.54,0,515.21-230.67,515.21-515.21S799.75,0,515.21,0Z"/>
    <path class="cls-1" d="M515.21,900.14c-49.94,0-98.66-9.49-144.79-28.19-47.82-19.39-90.68-47.84-127.39-84.55-36.71-36.71-65.16-79.57-84.55-127.39-18.71-46.13-28.19-94.85-28.19-144.79s9.49-98.66,28.19-144.79c19.39-47.82,47.84-90.68,84.55-127.39,36.71-36.71,79.57-65.16,127.39-84.55,46.13-18.71,94.85-28.19,144.79-28.19s98.66,9.49,144.79,28.19c47.82,19.39,90.68,47.84,127.39,84.55,42.96,42.96,42.96,112.61,0,155.56-42.96,42.96-112.61,42.96-155.56,0-64.31-64.31-168.94-64.31-233.25,0s-64.31,168.94,0,233.25c64.31,64.3,168.94,64.3,233.25,0,42.96-42.96,112.6-42.96,155.56,0s42.96,112.61,0,155.56c-36.71,36.71-79.57,65.16-127.39,84.55-46.13,18.71-94.85,28.19-144.79,28.19Z"/>
  </g>
</svg>