<?xml version="1.0" encoding="UTF-8"?>
<svg id="Layer_2" data-name="Layer 2" xmlns="http://www.w3.org/2000/svg" xmlns:xlink="http://www.w3.org/1999/xlink" viewBox="0 0 1080 1079.99">
  <defs>
    <style>
      .cls-1 {
        fill: url(#linear-gradient-2);
      }

      .cls-2 {
        fill: #fff;
      }

      .cls-3 {
        fill: url(#linear-gradient-3);
      }

      .cls-4 {
        fill: url(#linear-gradient);
      }
    </style>
    <linearGradient id="linear-gradient" x1="356.81" y1="343.87" x2="889.91" y2="907.62" gradientUnits="userSpaceOnUse">
      <stop offset=".19" stop-color="#f24141"/>
      <stop offset="1" stop-color="#d23032"/>
    </linearGradient>
    <linearGradient id="linear-gradient-2" x1="356.55" y1="344.11" x2="889.66" y2="907.86" gradientUnits="userSpaceOnUse">
      <stop offset=".19" stop-color="#f24141"/>
      <stop offset="1" stop-color="#f24141"/>
    </linearGradient>
    <linearGradient id="linear-gradient-3" x1="-46.26" y1="725.03" x2="486.85" y2="1288.78" gradientTransform="translate(797.6 131.09) rotate(45)" xlink:href="#linear-gradient-2"/>
  </defs>
  <g id="Layer_1-2" data-name="Layer 1">
    <g>
      <path class="cls-4" d="M1078.54,547.33c-20.86-272.66-258.82-476.79-531.48-455.93C274.39,112.27,70.27,350.22,91.13,622.89c20.86,272.66,259.08,476.48,531.46,455.64,272.38-20.84,476.79-258.82,455.95-531.2Z"/>
      <path class="cls-1" d="M48.63,584.97c0-142.74,57.21-276.04,157.9-378.15S440.51,48.91,584.68,48.91s278.9,55.78,378.15,157.9c9.73,9.44,26.03,9.44,35.47,0,9.44-9.73,9.44-26.03,0-35.47C888.18,61.21,741.43,0,584.97,0S281.47,61.5,171.34,171.63C61.21,281.76,0,428.78,0,584.97s61.21,303.21,171.34,414.48c5.43,4.29,10.87,6.87,17.73,6.87s12.3-2.57,16.02-6.29c9.44-9.73,9.44-26.03,0-35.47-100.69-102.12-156.47-236.85-156.47-379.58Z"/>
      <circle class="cls-3" cx="240.56" cy="1028.33" r="24.6" transform="translate(-656.68 471.29) rotate(-45)"/>
    </g>
    <path class="cls-2" d="M556.86,922.74c-57.53-4.99-110.35-25.07-158.44-60.22-46.36-33.27-83.13-79.81-110.36-139.62-24.87-54.62-35.31-111.81-31.3-171.57,3.26-59.41,21.55-113.2,54.89-161.35,32.99-48.89,77.18-85.95,132.56-111.16,59.06-26.89,116.25-37.32,171.57-31.3,55.33,6.02,104.14,26.14,146.46,60.35,6.35,5.13,13.4,12.53,20.81,21.46,63.7,76.7,36.41,193.13-54.33,234.44l-237.11,107.94c-23.36,10.63-28.26,41.6-9.42,59.02,20.46,18.92,43.57,32.04,69.33,39.37,39.88,11.27,80.12,7.65,120.73-10.84,33.96-15.46,60.12-36.28,78.51-62.49,8.51-12.23,15.29-25.41,20.33-39.53,9.9-27.72,36.67-45.81,66.1-45.06l9.22.23c46.56,1.18,78.8,47.33,63.43,91.3-29.14,83.37-89.25,145.77-180.32,187.23-58.33,26.55-115.9,37.15-172.68,31.81ZM626.31,482.03c47.4-21.58,24.91-80.86-12.5-91.19-10.22-2.82-20.8-5.06-31.87-6.26-26.05-2.39-53.12,2.79-81.16,15.56-35.44,16.13-61.01,40.25-76.7,72.34-11.07,22.82-17.22,47.19-18.44,73.1-.81,17.23,17.07,29.14,32.77,21.99l187.91-85.54Z"/>
  </g>
</svg>