<?xml version="1.0" encoding="UTF-8"?>
<svg id="Layer_2" data-name="Layer 2" xmlns="http://www.w3.org/2000/svg" xmlns:xlink="http://www.w3.org/1999/xlink" viewBox="0 0 1080 1080">
  <defs>
    <style>
      .cls-1 {
        fill: url(#linear-gradient);
      }
    </style>
    <linearGradient id="linear-gradient" x1="393.3" y1="199.66" x2="699.68" y2="910.47" gradientUnits="userSpaceOnUse">
      <stop offset="0" stop-color="#1db954"/>
      <stop offset="1" stop-color="#0eaa3e"/>
    </linearGradient>
  </defs>
  <g id="Layer_1-2" data-name="Layer 1">
    <path class="cls-1" d="M540,0C388.94,0,252.37,62.03,154.36,162.01c11.96,10.02,21.97,22.74,28.99,37.81l270.53,580.14c25.67,55.06,1.85,120.51-53.21,146.18-15.04,7.01-30.85,10.33-46.42,10.33-41.43,0-81.1-23.51-99.77-63.54L24.31,379.3C8.51,430.06,0,484.04,0,540c0,298.23,241.77,540,540,540s540-241.77,540-540S838.23,0,540,0ZM743.77,926.14c-15.04,7.01-30.85,10.33-46.42,10.33-41.43,0-81.1-23.51-99.77-63.54L327.06,292.79c-25.67-55.06-1.85-120.51,53.21-146.18,55.06-25.67,120.51-1.85,146.18,53.21l270.52,580.14c25.67,55.06,1.85,120.51-53.21,146.18ZM923.36,575.51c-15.04,7.01-30.85,10.33-46.42,10.33-41.43,0-81.1-23.51-99.77-63.54l-107.02-229.52c-25.67-55.06-1.85-120.51,53.21-146.18,55.06-25.67,120.51-1.85,146.18,53.21l107.02,229.52c25.67,55.06,1.85,120.51-53.21,146.18Z"/>
  </g>
</svg>