<?xml version="1.0" encoding="UTF-8"?>
<svg id="Layer_2" data-name="Layer 2" xmlns="http://www.w3.org/2000/svg" xmlns:xlink="http://www.w3.org/1999/xlink" viewBox="0 0 1077.85 1077.85">
  <defs>
    <style>
      .cls-1 {
        fill: #fff;
      }

      .cls-2 {
        fill: url(#linear-gradient);
      }
    </style>
    <linearGradient id="linear-gradient" x1="254.85" y1="295.18" x2="932.97" y2="728.2" gradientUnits="userSpaceOnUse">
      <stop offset="0" stop-color="#0973ff"/>
      <stop offset="1" stop-color="#2956ff"/>
    </linearGradient>
  </defs>
  <g id="Layer_1-2" data-name="Layer 1">
    <g>
      <path class="cls-2" d="M275.93,0h801.93v801.93c0,152.29-123.64,275.93-275.93,275.93H275.93C123.64,1077.85,0,954.21,0,801.93V275.93C0,123.64,123.64,0,275.93,0Z"/>
      <g>
        <path class="cls-1" d="M914.06,403.49h-412.08c-27.61,0-50-22.39-50-50s22.39-50,50-50h412.08c27.61,0,50,22.39,50,50s-22.39,50-50,50Z"/>
        <path class="cls-1" d="M914.06,772.68h-412.08c-27.61,0-50-22.39-50-50s22.39-50,50-50h412.08c27.61,0,50,22.39,50,50s-22.39,50-50,50Z"/>
        <path class="cls-1" d="M380.81,318.87l-122,122c-6.23,6.23-14.39,9.34-22.55,9.34s-16.33-3.11-22.55-9.34l-88.42-88.42c-12.46-12.46-12.46-32.65,0-45.11,12.46-12.46,32.65-12.46,45.11,0l65.87,65.87,99.45-99.45c12.46-12.46,32.65-12.46,45.11,0,12.46,12.46,12.46,32.65,0,45.11Z"/>
        <path class="cls-1" d="M380.81,684.23l-122,122c-6.23,6.23-14.39,9.34-22.55,9.34s-16.33-3.11-22.55-9.34l-88.42-88.42c-12.46-12.46-12.46-32.65,0-45.11,12.46-12.46,32.65-12.46,45.11,0l65.87,65.87,99.45-99.45c12.46-12.46,32.65-12.46,45.11,0,12.46,12.46,12.46,32.65,0,45.11Z"/>
      </g>
    </g>
  </g>
</svg>