<?xml version="1.0" encoding="UTF-8"?>
<svg id="Layer_2" data-name="Layer 2" xmlns="http://www.w3.org/2000/svg" xmlns:xlink="http://www.w3.org/1999/xlink" viewBox="0 0 935.6 1080">
  <defs>
    <style>
      .cls-1 {
        fill: url(#linear-gradient);
      }
    </style>
    <linearGradient id="linear-gradient" x1="377.49" y1="185.47" x2="591.22" y2="949.99" gradientUnits="userSpaceOnUse">
      <stop offset="0" stop-color="#ff6711"/>
      <stop offset="1" stop-color="#ef4623"/>
    </linearGradient>
  </defs>
  <g id="Layer_1-2" data-name="Layer 1">
    <path class="cls-1" d="M541.98,0h-111.92s-67.32,0-67.32,0H54.2C25.51,0,1.32,22.32.05,50.99c-1.35,30.59,23.06,55.82,53.35,55.82h75.62L52.36,836.24c-6.8,64.74,43.96,121.12,109.05,121.12h.01c-8.51,12.88-13.38,28.38-13.06,45.05.78,41.3,33.76,75.41,75.01,77.49,45.56,2.3,83.21-33.96,83.21-79.02,0-16.08-4.83-31.03-13.07-43.52h225.93c-8.51,12.88-13.38,28.38-13.06,45.05.78,41.3,33.76,75.41,75.01,77.49,45.56,2.29,83.21-33.96,83.21-79.02,0-16.08-4.83-31.03-13.07-43.52h46.7c30.35,0,54.79-25.32,53.35-55.99-1.35-28.73-26.1-50.83-54.85-50.83h-391.46c-17.07,0-30.38-14.78-28.6-31.76h0c1.88-17.93,17-31.54,35.03-31.54h230.27c217.39,0,393.63-176.23,393.63-393.63h0C935.6,176.23,759.37,0,541.98,0ZM830.37,318.61l-306,306c-15.62,15.62-36.09,23.43-56.57,23.43s-40.95-7.81-56.57-23.43l-221.79-221.79c-31.24-31.24-31.24-81.9,0-113.14,31.24-31.24,81.9-31.24,113.14,0l165.22,165.22,249.44-249.43c31.24-31.24,81.89-31.24,113.14,0,31.24,31.24,31.24,81.9,0,113.14Z"/>
  </g>
</svg>