<?xml version="1.0" encoding="UTF-8"?>
<svg id="Layer_1" xmlns="http://www.w3.org/2000/svg" version="1.1" viewBox="0 0 45 45">
  <!-- Generator: Adobe Illustrator 29.3.1, SVG Export Plug-In . SVG Version: 2.1.0 Build 151)  -->
  <defs>
    <style>
      .st0 {
        fill: #a9aab2;
      }
    </style>
  </defs>
  <path class="st0" d="M45,4.9v2.8c0,2.7-2.2,4.9-4.9,4.9h-2.8c-2.7,0-4.9-2.2-4.9-4.9v-2.8c0-2.7,2.2-4.9,4.9-4.9h2.8c2.7,0,4.9,2.2,4.9,4.9Z"/>
  <path class="st0" d="M45,21.1v2.8c0,2.7-2.2,4.9-4.9,4.9h-2.8c-2.7,0-4.9-2.2-4.9-4.9v-2.8c0-2.7,2.2-4.9,4.9-4.9h2.8c2.7,0,4.9,2.2,4.9,4.9Z"/>
  <path class="st0" d="M12.7,21.1v2.8c0,2.7-2.2,4.9-4.9,4.9h-2.8c-2.7,0-4.9-2.2-4.9-4.9v-2.8c0-2.7,2.2-4.9,4.9-4.9h2.8c2.7,0,4.9,2.2,4.9,4.9Z"/>
  <path class="st0" d="M12.7,37.3v2.8c0,2.7-2.2,4.9-4.9,4.9h-2.8c-2.7,0-4.9-2.2-4.9-4.9v-2.8c0-2.7,2.2-4.9,4.9-4.9h2.8c2.7,0,4.9,2.2,4.9,4.9Z"/>
  <path class="st0" d="M12.7,4.9v2.8c0,2.7-2.2,4.9-4.9,4.9h-2.8c-2.7,0-4.9-2.2-4.9-4.9v-2.8C0,2.2,2.2,0,4.9,0h2.8c2.7,0,4.9,2.2,4.9,4.9Z"/>
  <path class="st0" d="M28.8,4.9v2.8c0,2.7-2.2,4.9-4.9,4.9h-2.8c-2.7,0-4.9-2.2-4.9-4.9v-2.8c0-2.7,2.2-4.9,4.9-4.9h2.8c2.7,0,4.9,2.2,4.9,4.9Z"/>
  <path class="st0" d="M28.8,37.3v2.8c0,2.7-2.2,4.9-4.9,4.9h-2.8c-2.7,0-4.9-2.2-4.9-4.9v-2.8c0-2.7,2.2-4.9,4.9-4.9h2.8c2.7,0,4.9,2.2,4.9,4.9Z"/>
  <path class="st0" d="M28.8,21.1v2.8c0,2.7-2.2,4.9-4.9,4.9h-2.8c-2.7,0-4.9-2.2-4.9-4.9v-2.8c0-2.7,2.2-4.9,4.9-4.9h2.8c2.7,0,4.9,2.2,4.9,4.9Z"/>
  <path class="st0" d="M45,37.3v2.8c0,2.7-2.2,4.9-4.9,4.9h-2.8c-2.7,0-4.9-2.2-4.9-4.9v-2.8c0-2.7,2.2-4.9,4.9-4.9h2.8c2.7,0,4.9,2.2,4.9,4.9Z"/>
</svg>